PathFileType	3	(X/Y/Z)	results
DataRate	CameraRate	NumFrames	NumMarkers	Units	OrigDataRate	OrigDataStartFrame	OrigNumFrames
30.0	30.0	4	85	mm	30.0	120	239
Frame#	Time	head			nose			neck			shoulder_r			elbow_r			wrist_r			shoulder_l			elbow_l			wrist_l			hip_r			knee_r			ankle_r			hip_l			knee_l			ankle_l			heel_r			heel_l			mtoe_r			ltoe_r			mtoe_l			ltoe_l			asis_l			asis_r			psi_r			psi_l			mhnd_r			lhnd_r			mhnd_l			lhnd_l			l_lat_knee			r_med_wrist			l_lat_ankle			r_med_ankle			r_lat_knee			xiphoid			l_med_ankle			r_med_knee			l_med_elbow			navel			r_lat_elbow			r_lat_wrist			l_med_wrist			l_lat_elbow			l_med_knee			r_med_elbow			r_lat_ankle			l_lat_wrist			chin			T10			r_eye			l_eye			l_ear			r_ear			spinal_cord_8			spinal_cord_12			spinal_cord_27			spinal_cord_33			up_arm_r_0			up_arm_r_5			up_arm_l_0			up_arm_l_5			front_torso_11			front_torso_7			front_torso_4			front_torso_1			front_torso_10			thigh_r_2			thigh_r_3			thigh_l_1			thigh_l_5			shank_l_0			shank_l_4			shank_r_1			shank_r_2			foot_r_1			foot_r_3			foot_r_5			foot_r_6			foot_r_7			foot_l_1			foot_l_7			foot_l_0			foot_l_4			foot_l_5			foot_l_6			
		X1	Y1	Z1	X2	Y2	Z2	X3	Y3	Z3	X4	Y4	Z4	X5	Y5	Z5	X6	Y6	Z6	X7	Y7	Z7	X8	Y8	Z8	X9	Y9	Z9	X10	Y10	Z10	X11	Y11	Z11	X12	Y12	Z12	X13	Y13	Z13	X14	Y14	Z14	X15	Y15	Z15	X16	Y16	Z16	X17	Y17	Z17	X18	Y18	Z18	X19	Y19	Z19	X20	Y20	Z20	X21	Y21	Z21	X22	Y22	Z22	X23	Y23	Z23	X24	Y24	Z24	X25	Y25	Z25	X26	Y26	Z26	X27	Y27	Z27	X28	Y28	Z28	X29	Y29	Z29	X30	Y30	Z30	X31	Y31	Z31	X32	Y32	Z32	X33	Y33	Z33	X34	Y34	Z34	X35	Y35	Z35	X36	Y36	Z36	X37	Y37	Z37	X38	Y38	Z38	X39	Y39	Z39	X40	Y40	Z40	X41	Y41	Z41	X42	Y42	Z42	X43	Y43	Z43	X44	Y44	Z44	X45	Y45	Z45	X46	Y46	Z46	X47	Y47	Z47	X48	Y48	Z48	X49	Y49	Z49	X50	Y50	Z50	X51	Y51	Z51	X52	Y52	Z52	X53	Y53	Z53	X54	Y54	Z54	X55	Y55	Z55	X56	Y56	Z56	X57	Y57	Z57	X58	Y58	Z58	X59	Y59	Z59	X60	Y60	Z60	X61	Y61	Z61	X62	Y62	Z62	X63	Y63	Z63	X64	Y64	Z64	X65	Y65	Z65	X66	Y66	Z66	X67	Y67	Z67	X68	Y68	Z68	X69	Y69	Z69	X70	Y70	Z70	X71	Y71	Z71	X72	Y72	Z72	X73	Y73	Z73	X74	Y74	Z74	X75	Y75	Z75	X76	Y76	Z76	X77	Y77	Z77	X78	Y78	Z78	X79	Y79	Z79	X80	Y80	Z80	X81	Y81	Z81	X82	Y82	Z82	X83	Y83	Z83	X84	Y84	Z84	X85	Y85	Z85	
120	4.0	104.6670388630676	1151.666882704813	-639.9337616121643	103.07482384858255	975.3266098055036	-747.66354079125	90.90676925097904	892.3339777446529	-569.6857733213735	230.91923145907876	820.2045240695879	-631.58380515968	378.65578490313226	661.1456919244032	-778.6735746501171	201.41362990044476	767.4394890989346	-864.8477852148957	-63.174684833491476	818.2835178625265	-580.6150738481765	-169.68372506858103	686.810463141871	-796.9806020725525	35.01656979701054	771.5651925190595	-876.3120048231406	215.33281793233928	518.5030465547811	-224.7535030031988	315.0976498925773	435.51874521175785	-607.0600643720235	308.837186496423	110.70169056768248	-391.9167790735523	4.258034983425571	515.4182818705723	-210.05484862205824	-134.11790224583004	427.44822011097494	-591.2100486503223	-116.83744345521133	105.7103098994625	-374.099607212816	302.44021557528134	59.27819480903126	-354.95623216691405	-118.62286464231877	47.049650255572175	-327.6520046199821	337.7850537691232	35.05925103526643	-577.9600380363531	391.3987812262865	25.732863794445024	-506.327308734977	-114.048403338593	47.18933145339083	-555.6082957528381	-191.1258634783377	26.483441616574257	-497.67349738388367	-48.47654387051911	522.2999975739677	-289.03815581483843	260.90930066754214	527.5802693789933	-305.6905143402333	160.70606995950737	655.615119640619	-217.63897815971077	55.23110293570561	648.883429946343	-214.14823746353633	149.32770685554857	780.3542976940483	-914.8673025453893	136.67514509362147	822.1981767137038	-883.9150049861532	92.4864735792222	781.2999269568363	-925.4756286261056	112.00406676165052	813.3658497627715	-887.4415981444897	-174.0737624334785	444.0883475964019	-561.368251254963	213.12062405456095	752.0886994839642	-885.3647897620411	-167.59142751595186	98.38848182257559	-354.0268709248186	281.7472718810283	88.94122540545668	-408.36667901418133	354.2332242109516	438.4264022255041	-589.2819919194105	103.86466007631289	707.0681381842336	-524.8958660407321	-88.75106742988484	86.9300579946275	-383.674594251613	271.9659326989579	437.65809352688825	-606.3069394049446	-161.6197102684247	659.1463573101666	-772.5641395845483	112.10841893490473	539.4212598864887	-389.1142722384237	395.66756314670636	696.2593059178206	-787.8952106240511	198.4364894095547	772.2563932388296	-834.3015835392147	16.837628035001273	763.3257747844086	-902.2646339851881	-181.9945475092188	726.59857959353	-800.5379776190593	-81.44713271461013	438.89421251968963	-588.5218262566144	356.68774176856135	636.0206388301782	-762.7986391971023	353.45125669313484	103.21606604575895	-368.79298128848	32.33408296034823	783.9835945277815	-847.4732910256454	105.89776001785022	903.1384262329744	-724.2001652110773	96.46425418668366	845.7281092979987	-391.4383781965728	134.33657426581095	1006.6564338769979	-750.2177263180407	67.31737578269819	1004.7921899775594	-747.9105720950623	19.81499236052968	1004.8575945345494	-647.1314405656117	186.20413681103932	1006.6233672684154	-650.1719499229406	86.21584668021318	967.5460744907369	-574.0233387114022	89.22804246918159	917.5835196523956	-458.40471537705076	116.53688046936814	726.7589512344917	-301.6163689495828	97.26982468418502	830.097307227751	-394.3813524649249	283.2778869266125	757.8366823852958	-742.4457508565291	347.48731310418543	725.2199159805302	-690.8799763604947	-99.53784851568952	817.2455747849264	-632.4071474530396	-146.30570903898283	687.9494798180094	-712.0116180479151	158.62325685827733	588.7424437332705	-379.5488458831793	110.2028249143994	624.1296956740069	-488.83282215306957	35.985984225820566	731.8526179738737	-558.9291288098079	37.14914827501561	602.9737511391317	-404.3395888733646	181.64612509537596	764.9555807107007	-593.1088633337971	250.0593267047982	474.84867590270716	-427.99605153110076	351.1423061131432	470.3342144897521	-438.2935384217706	-44.83034624069489	443.87314277667247	-479.8807968810995	-121.65559066648913	534.9490200400397	-285.58832130118117	-189.1285748698539	181.9050221177442	-423.5179963575932	-80.5147327257873	297.7485026049592	-519.0015068642962	365.94450624752847	308.8576576450841	-494.27881753511946	276.6863545882285	255.25570000131458	-512.0133316724664	356.3397666732895	25.894783680918316	-555.4525339846326	377.3986058928422	25.50027181306848	-534.5400148417026	313.0547133440752	53.63426229786264	-498.9768427461676	347.94294999472885	56.072883621955285	-479.3139695496571	374.2482682257806	39.16185194039909	-461.06012069542356	-161.64169463236914	30.017089886078555	-528.5277761473862	-180.1715084352049	58.52774896718662	-422.1540952140452	-176.36557034939415	28.61311236853407	-520.2552075266215	-143.5357158914461	31.710194797458602	-538.0403856359075	-150.50044110753586	46.81984637509232	-479.02083052853163	-120.26916619294293	61.63827277035991	-449.7536547406451	
121	4.033333333333333	108.27765407624699	1154.1067504689456	-637.9973739538518	102.74288906776422	979.1593370496786	-747.8468219772205	89.3440603914965	894.8753406007137	-570.2570001699316	232.13764455485259	825.2489417691501	-636.1374777494607	378.28639793838306	661.9476000763835	-780.1319751493617	201.6874651503411	770.0931378033318	-865.3171088413019	-59.56250139290203	819.493879072661	-580.8339938832335	-169.4790746174619	688.9046128014877	-796.0273303007912	34.51490508463745	774.3065760829329	-876.4761167752357	217.98620598716514	522.858271975046	-225.80542955876726	313.87157369804015	435.7204354609109	-607.8026258584521	308.5871835472393	110.77669735468065	-392.82451561257204	6.961083127014655	516.2156905175063	-211.57855906162175	-132.77581933307226	426.87904028370053	-591.886184845109	-116.81685356612404	105.7381279261534	-373.7929324820756	302.2120648322155	59.4917392494894	-355.82235570439707	-118.88650350729858	47.173351027822235	-327.2159813100634	339.792899825151	33.40101757705257	-578.2486746070064	392.7255578670625	24.83583490284514	-506.0168773404529	-113.3586702966633	46.99847099586312	-555.1511219774766	-190.70711854725099	26.480225664283736	-497.51147625234245	-45.72516649107353	523.0055548945459	-290.6020585788936	263.56612641400034	533.4533553888137	-306.5558265746492	161.13105453896776	658.9930952178734	-217.485555871101	55.77246839110801	650.5217002948707	-214.28034473881013	149.20411137427732	783.2927824183884	-914.8444218404496	137.58352757102594	825.6572706849679	-884.1971638761734	91.58371501573914	784.3841016226098	-926.0362944665549	111.37771645332067	816.2385999335507	-887.9674651155658	-172.5862807913643	443.8427792954848	-562.058518822834	212.90292808682156	754.3428124220638	-885.8058513849473	-167.64850768625254	98.57393382671404	-353.8603443703912	281.8234608689564	88.79173528612976	-409.5081937815751	353.25761776284037	438.37086453450553	-590.7028592607721	104.22651497857817	709.8195741429458	-525.1975962339245	-88.73729998231259	86.87522402151987	-383.2243843033304	270.8396766418572	437.831892362194	-606.9920850937126	-161.08863095158569	661.1463068815505	-771.8287428598286	114.12832005857001	542.457816562687	-389.1752711016247	395.68717894561576	696.701214815388	-789.9708846231902	199.15797412084336	775.2808477739028	-834.7912884886931	16.136543013173576	766.2070354905114	-902.3321438942122	-181.78693610781752	728.7209842390957	-799.2643956061605	-80.05363430384462	438.0518962708707	-589.4110911964286	356.0313733028472	637.3551308374437	-763.8285668249998	353.0681553414653	103.66395159138742	-369.329583096106	32.05212454042389	786.5499971925549	-847.543138893648	104.95954113736121	906.6534875298603	-725.3163748279741	95.23885570004572	848.5780078135449	-391.94004963993103	134.37515932432197	1010.1077467643171	-750.4876918634704	67.37904890007673	1009.0900486455274	-747.1927245183492	21.391060520298947	1008.5189801589818	-645.7151759376991	187.72508729705885	1008.1499815216714	-651.24377591473	83.85962857772903	970.027375689657	-574.7034993198691	87.29989978443923	920.2597933971471	-459.01275397712976	116.4930358459691	729.9529709449996	-301.9349125884754	96.21272290698892	832.9525665431197	-394.86052605613776	283.9268915900225	760.309251928337	-745.7835358515425	347.72750591924614	727.9437614188173	-693.5562480086537	-96.69818193111708	818.6817017973335	-632.0790666818871	-144.83036216246427	689.7213706854744	-711.4144995981281	160.10909455962076	592.2827526419543	-379.6384568838823	111.41215605671948	627.0030551728906	-489.0134634965071	36.118756655072815	733.8355886568086	-559.3240134409093	38.51272842002194	605.1905852136784	-404.55394813989756	181.4496409587099	768.4341357408744	-593.4240374793083	250.69632999458037	476.954238809155	-428.8867816007339	351.6609908016351	471.8385524861255	-440.0292384995169	-43.14327978740053	443.4436942541571	-480.88917494938886	-119.04395085453395	535.9460132016774	-286.90745212933	-188.80088363086918	181.93087238367855	-423.6605988057431	-79.65716957716555	297.2842490626303	-519.1332526218954	364.85290748440394	309.45449445976914	-494.6396491774731	276.20873813590265	255.09776889277802	-513.139868600924	358.14827441827885	24.48017419709917	-555.481343880295	379.0025012529792	24.3210451171033	-534.3616917322356	314.24758936461603	52.608623244578865	-499.67723630282603	348.93603171658077	55.305427587514295	-479.6971530590873	375.1015334912931	38.619965471220866	-461.0392424416586	-161.08918648881877	29.93035555171749	-528.2468647318785	-180.0230361408714	58.610997882483616	-421.9900919173267	-175.84950995226183	28.558441595245835	-520.0340842078417	-142.94119600776583	31.58492411561363	-537.6859141573123	-150.1311351731173	46.784186326781075	-478.71639613112836	-120.00143977662252	61.59926486583342	-449.3429689291682	
122	4.066666666666666	109.55129523500013	1160.654640357646	-636.6838376300959	103.05196255545506	986.210439068206	-747.2781938515582	89.43355847560423	900.6470227917526	-570.1739000813977	232.9141386595874	832.6730911269434	-635.9574774924741	375.9781468873028	666.7195187513149	-780.0175446910384	200.74036530811955	776.4097715552467	-866.0344950046592	-54.819612386721985	825.3190429724599	-582.9247417195419	-167.6822807829591	695.2699481938104	-796.9168738247398	36.86753052970382	780.823989527331	-875.7770477764424	218.8184942156301	528.2196782621602	-226.07781656834896	312.3982807805852	437.3103467937114	-607.3680216492685	308.38279871280224	111.69057845925767	-393.38767682249255	7.787810311468982	521.2921568793467	-212.07102860190662	-130.55396620834077	426.97437272254786	-591.4269983823737	-116.60054849445015	105.5398052433022	-373.6290143053713	302.03761623814	60.58852299701169	-356.373290416932	-119.07689808940094	46.926511695428445	-327.1398164275925	340.0994698610679	31.81981018326846	-578.3871834924493	392.783429711297	23.778597274351263	-505.91373699351516	-111.97754360123642	46.94392179902661	-555.0314896779403	-189.77171375024935	26.563588340544772	-497.94542573473944	-44.82229564277942	527.9027775462808	-291.160427884712	264.47080554987616	538.7746132756029	-306.7925697029956	161.75875372245562	664.2833441144458	-217.99799643289887	56.40903244768322	655.6645947989244	-214.8959047218138	148.4350460827977	789.8967499005375	-915.6726131228316	137.32768133527802	832.6193421173805	-885.3337137132398	94.22719299166997	791.0827834153504	-924.9628492943868	113.84578756605069	822.7168059088375	-886.6203573107524	-170.56088903398015	444.01115889713896	-562.1148617937955	211.76672805730857	760.3764856839332	-886.4060682921403	-167.61141960816488	98.35393955651261	-354.16763796493024	281.7238433683199	89.64193183564367	-410.15484140122857	351.9627661933614	439.7630066303695	-590.8169440914091	103.45669785733281	715.4098856777736	-525.5865853767172	-88.43829765754711	86.68677620168175	-382.83084457947416	269.4596856452534	439.2788095189792	-606.6710804945892	-159.21616497239106	667.475638074122	-772.7860649977314	113.37101751409175	547.7238555850288	-389.96513369568237	393.8240017349097	701.1806239451548	-790.0854516383765	198.26725526721978	781.8469340395505	-835.5474918942895	18.62515882364302	772.8802630309499	-901.7773164770532	-179.7818281041015	735.1579789151743	-800.0555742738951	-77.93511131694282	438.0101364184005	-589.1045123874112	353.4568160584594	642.5138647334771	-763.502316595311	352.8798941932491	104.69723677104697	-369.88743163566096	34.256900361874955	792.9222108569448	-846.7959934760993	105.48877673254273	913.6027860688725	-725.1011004367781	96.49745817840882	853.967505691305	-391.9991249713617	134.65246865588816	1017.1784584374009	-750.065409263184	67.68937333441346	1016.1290685589015	-746.164899412657	22.628038003856766	1015.0821639365162	-644.2762635924055	188.90485807253137	1014.779740979268	-651.3216656161909	84.41285460371262	975.8422639507669	-574.4338255136649	88.48031602471382	925.8297466992153	-458.86912438512854	117.70661529128317	735.0304520003523	-302.3960382205848	97.34305605049262	838.3416071124088	-394.9568728596483	283.21107711053685	766.5595028694898	-745.5966990904097	346.8069330406025	733.4929354745859	-693.5591915658106	-92.4735133667827	824.7010928221135	-633.7929809823441	-142.17854969286898	695.9873156097153	-712.5569169546542	159.75989074207774	597.2238400004154	-380.71685342540474	110.39048887469353	632.4777939665797	-489.6186632722347	35.22986544796322	739.9434864698175	-559.1015047400199	38.0498547471159	610.9869611656846	-404.5980958235466	180.5002817990775	773.6418875420126	-594.3415519956101	250.34836789947497	480.21824474037504	-428.86069914477184	351.23990774010474	474.72736665345695	-440.4768418178664	-41.36887333588764	444.8928485362188	-480.5504218345087	-118.01489104693229	539.8226168306894	-288.04009294812283	-188.12295579664647	181.80647090445981	-424.0448848178244	-78.10825924948608	297.2769013661778	-518.3694610850591	363.85447452773747	310.9190235311986	-494.5604994184936	275.4559505221635	256.2386313710141	-513.2809737557321	358.34308808002936	23.055693825817166	-555.4696524247929	379.13706771800395	23.02094148385128	-534.2901101992752	314.4380038554149	52.03800983720224	-500.10768755394497	349.08443450905685	54.77257093647792	-480.0599562246129	375.1079123304141	38.15700770868932	-461.14283650544354	-159.93414032912185	29.96874987378804	-528.472683848062	-179.53011535754294	58.59981238391896	-422.3226405209789	-174.7540726231982	28.625661466517318	-520.363135098922	-141.717481847855	31.587282324657686	-537.7848541735646	-149.27672831544965	46.750885973785486	-478.8523523564857	-119.31415259313316	61.46541319479623	-449.2582639748631	
123	4.1	110.42758822428043	1170.9291622956828	-635.0081254491892	103.07827169402128	996.7213559120455	-745.921425185375	89.31885416603073	909.3396654471888	-570.2142874081466	232.62188821117127	842.911346138217	-633.3791590103307	373.26685574601066	675.1302163201293	-777.7040951085589	200.24088933138052	787.2003983326521	-865.1194063772562	-52.29124807350386	836.1534992187366	-583.7018152211976	-165.47668886855988	706.0024721842079	-797.4613710943325	39.89705326468962	790.8489305467685	-874.9323390613872	218.81627944780197	536.6024435748641	-226.00186756005763	310.67703246944126	439.1736494475644	-605.4224569168549	308.6177631820526	112.18359299342845	-393.5139672598119	7.782229167418511	529.8107036732968	-211.97931065804292	-128.79763584271296	428.3186705917445	-589.6690131215161	-116.70045641971956	105.47563900751523	-373.85224798964185	302.5359298465631	60.9761257765748	-356.7078258894362	-119.52360912467046	46.695182973468356	-327.6580222354955	339.0135320196992	32.17981318388264	-578.9839361160695	392.15917100170975	23.947321577111463	-506.8699408230669	-110.71514005634847	47.07929266303032	-555.4897127583954	-188.915872963011	26.535691777845877	-499.02100077458283	-44.81606230404507	535.9311886284945	-291.11600272455854	264.48149245391426	546.6350640265075	-306.77591292652136	161.78576995003235	672.7272726158601	-218.79280737744844	56.43372817834138	664.1517349498049	-215.6500325376026	148.51576854115171	801.3894278784932	-915.1680936152478	137.76522030559985	844.2746161018471	-884.93022665296	97.63955624465132	800.8831364297396	-923.7148652634756	117.08021635359457	832.4936668706551	-885.2625256275064	-169.11764643310846	445.2114821753715	-561.0648332703012	211.20249123990484	771.0073033612134	-885.3993197981803	-167.8692963323427	98.18120443872469	-354.8514097757404	281.8522336176221	90.2159624710262	-410.21756454810134	350.4426381453625	441.36065343077223	-589.58145192792	102.55824653337515	723.9392702589423	-526.0680985504174	-88.47003218142987	86.67303966112871	-382.9477502728409	267.88315147906593	440.8156994465157	-605.1371767394984	-157.17947973419868	678.2409371414476	-773.2343568490063	112.29525801151487	555.9318618840003	-390.83209033809754	391.68566359316185	709.3307186969131	-787.6277139740905	197.60586259632515	792.6842196380564	-834.6543328371718	21.817231901532146	782.936291929766	-901.0553384720291	-177.37868984608372	745.9387961356167	-800.7382419635798	-76.38211313646903	439.26416142946044	-587.6869753286506	350.3262341739556	651.2386980336637	-761.3089731619973	353.3005902562965	105.08473720092177	-370.400960767889	37.11596141783519	802.9832286501663	-845.9822406979936	105.48667955596176	924.0646176195875	-723.902552325826	97.11762128200276	862.268062291234	-392.17336545745184	134.72229806219744	1027.6368027883452	-748.7971022976401	67.77675031324645	1026.7026341215114	-744.5790106984815	23.200208486335846	1025.532400169275	-642.478684883018	189.44067748463291	1024.9385387975126	-650.3185724695585	84.69359017491743	984.5699757839128	-574.2991453827528	89.12771183995365	934.3063546024857	-458.8569381015092	118.16375901990986	743.0372850971953	-302.9228971258351	97.85958521532689	846.6436028308389	-395.16631898565777	282.0564926419903	776.3441875569513	-743.1360757199441	345.01041871250646	742.0900069549231	-691.0862220820737	-89.87520795925836	835.5631356559469	-634.6220795299379	-140.08996560239174	706.8526058459225	-713.067361868488	159.01021936105437	605.1546047832092	-381.7469006299676	109.23053237336578	640.898674988791	-490.30162188820213	34.28306254050181	748.9184485963348	-559.15265610672	37.24728210822897	619.6418561607989	-404.91965971624455	179.53992205025222	781.8781776695779	-595.1392933073239	249.50570874566114	484.9414853874896	-428.0129374280303	350.34103684409996	478.97800827635166	-439.8814197322517	-40.166414341870684	448.3105442842487	-479.174127333516	-117.90753239139086	546.2406521521564	-288.61570530830437	-187.79040608183928	182.09147688710792	-424.3502824062978	-76.98242610786	298.1329953762275	-517.0311165425805	363.1192207743501	312.11331665134526	-493.8270615891498	274.63247509345	257.4645364984628	-512.220189631232	357.3839362939475	23.350366207551073	-556.1931115505565	378.31981964970043	23.2430922860657	-535.1540743527107	313.9420214405486	52.44536829696583	-500.52571441540863	348.7308867346785	55.065219280163724	-480.71067605387344	374.8298230827055	38.362031544402804	-461.97555399047997	-158.85341899829774	30.017118449084254	-529.3181612124582	-179.27227547744712	58.462017287276716	-423.27321929496713	-173.73247631423592	28.647291913716977	-521.3221441265922	-140.56897428731838	31.66748096215345	-538.4908486526468	-148.584467442424	46.730851718511545	-479.5929405052207	-118.85872655054234	61.42676172640093	-449.751796427598	
